<svg width="73" height="75" viewBox="0 0 73 75" fill="none" xmlns="http://www.w3.org/2000/svg">
<rect y="0.5" width="73" height="74" rx="20" fill="white"/>
<circle cx="21.5" cy="40.5" r="12.5" fill="#FF5C11" fill-opacity="0.6"/>
<ellipse cx="33" cy="25.5" rx="11" ry="10.5" fill="#FF3659" fill-opacity="0.6"/>
<circle cx="47.5" cy="55.5" r="12.5" fill="#FF2929" fill-opacity="0.6"/>
<circle cx="61" cy="47" r="7" fill="#FBFF4E" fill-opacity="0.6"/>
<circle cx="58" cy="27" r="7" fill="#E684FF" fill-opacity="0.6"/>
<circle cx="58" cy="17" r="7" fill="#FF4040" fill-opacity="0.6"/>
<path d="M29.2059 29.5961L31.4872 28.1503" stroke="#020203" stroke-linecap="round"/>
<path d="M19.918 62.2254C20.8143 64.0289 35.0236 61.426 40.3832 55.6639C48.4799 46.9659 48.9152 32.6262 49.928 25.1315L32.9267 20.6865C32.9267 20.6865 32.2639 25.1689 31.4355 30.2657C30.7492 34.4886 30.2154 39.2399 29.6823 41.6347C29.1172 44.1734 27.9844 49.587 25.59 53.5929C22.5622 58.6585 19.918 62.2254 19.918 62.2254Z" fill="#972C23"/>
<path d="M19.92 62.2066C20.868 64.0184 35.0003 60.8728 40.1932 54.8024C48.0384 45.6388 48.5708 28.9066 49.3678 21.2149L31.7315 19.3223C31.7315 19.3223 31.1977 23.9246 30.5161 29.1602C29.9515 33.498 29.5544 38.3706 29.0903 40.8355C28.5983 43.4486 27.6215 49.0183 25.3427 53.1929C22.4612 58.4719 19.92 62.2066 19.92 62.2066Z" fill="url(#paint0_radial_124_4868)"/>
<path d="M38.9063 30.6417C38.9063 30.6417 37.8716 35.0594 42.2749 35.4171C46.7213 35.7795 46.4792 31.4543 46.4792 31.4543L38.9135 30.6425L36.9987 30.437M36.9987 30.437L29.7857 29.663C29.577 29.6406 29.3864 29.7884 29.3548 30.0146C29.2028 31.0922 29.123 34.0747 32.6936 34.389C37.1288 34.7884 36.9987 30.437 36.9987 30.437Z" stroke="#511112" stroke-linecap="round"/>
<path d="M45.8813 31.6833L48.3188 30.5311" stroke="#521308" stroke-linecap="round"/>
<path d="M45.8949 31.5278L48.3325 30.3755" stroke="#020203" stroke-linecap="round"/>
<path d="M29.2049 29.5974C29.2049 29.5974 28.1192 33.8795 32.4465 34.2674C36.8385 34.6622 36.7058 30.4023 36.7058 30.4023M29.2049 29.5974L36.7058 30.4023L29.2049 29.5974ZM46.1071 31.4112C46.1071 31.4112 46.3518 35.6448 41.9485 35.287C37.5812 34.9331 38.6062 30.6062 38.6062 30.6062M46.1071 31.4112L38.6062 30.6062L46.1071 31.4112ZM38.6062 30.6062L36.7058 30.4023L38.6062 30.6062Z" fill="#020203"/>
<path d="M36.7058 30.4023C36.7058 30.4023 36.8385 34.6622 32.4465 34.2674C28.1192 33.8795 29.2049 29.5974 29.2049 29.5974L36.7058 30.4023ZM36.7058 30.4023L38.6062 30.6062M38.6062 30.6062C38.6062 30.6062 37.5812 34.9331 41.9485 35.287C46.3518 35.6448 46.1071 31.4112 46.1071 31.4112L38.6062 30.6062Z" stroke="#020203" stroke-linecap="round"/>
<path d="M38.6851 30.6077C38.6851 30.6077 37.605 34.9057 41.853 35.285C46.1587 35.6706 46.0348 31.3963 46.0348 31.3963L38.6851 30.6077Z" fill="url(#paint1_linear_124_4868)"/>
<path d="M32.5368 34.2727C36.9257 34.6289 36.6802 30.4028 36.6802 30.4028L29.2081 29.601C29.2081 29.601 28.1839 33.9203 32.5368 34.2727Z" fill="url(#paint2_linear_124_4868)"/>
<path d="M30.4005 20.1642C33.6322 13.6562 36.9594 14.3254 40.1674 14.5845C40.4136 14.6039 40.653 14.4238 40.7462 14.1499C41.7058 11.3577 42.7075 9.62732 43.3964 8.62974C43.6312 8.29304 44.0424 8.23072 44.3363 8.46804L44.7216 8.77903C45.0482 9.04116 45.1048 9.57234 44.8702 9.97293C44.0038 11.434 43.4052 13.0444 43.1926 14.1002C43.1221 14.4262 43.3258 14.7106 43.6104 14.7695C48.6403 15.7066 50.1524 19.8001 50.3753 23.7411C50.4203 24.5123 50.235 25.3794 49.6278 25.7471C48.8232 26.2355 47.9895 25.8055 47.4682 25.1747C47.1793 24.8244 46.455 24.697 46.1282 25.0309C44.7172 26.4761 43.7459 25.7404 43.2703 24.6178C43.095 24.2016 42.5498 24.058 42.233 24.3646C40.5949 25.9415 39.4165 24.8216 38.8733 23.7344C38.6864 23.3596 38.1763 23.2197 37.8704 23.492C35.9095 25.233 34.7527 23.8457 34.0591 22.5721C33.9054 22.2859 33.5639 22.228 33.3223 22.4291C31.5041 23.9655 30.5907 23.2856 30.1917 22.2422C29.9212 21.5887 30.0827 20.8113 30.4005 20.1642Z" fill="url(#paint3_linear_124_4868)"/>
<path d="M30.1456 19.8956C33.2457 13.4231 36.5967 14.0027 39.813 14.1846C40.06 14.1969 40.2923 14.0161 40.3856 13.7422C41.293 10.9728 42.3363 9.31783 43.0285 8.35608C43.2626 8.0264 43.6745 7.95706 43.9698 8.18035L44.5543 8.61916C44.8887 8.87503 44.9593 9.40771 44.7247 9.8083C43.8212 11.3505 43.0405 13.204 42.7852 14.3262C42.7155 14.6451 42.9067 14.914 43.1843 14.9721C48.152 15.9594 49.6635 19.2651 49.9643 23.0086C50.0296 23.7891 49.8411 24.6204 49.3156 25.153C48.3057 26.1658 47.5739 25.5125 47.1436 24.629C46.9638 24.2549 46.4772 24.1601 46.1963 24.4635C44.4574 26.3844 43.4409 25.4096 42.9538 24.1297C42.7932 23.708 42.2676 23.5806 41.9571 23.895C40.231 25.6967 39.0679 24.5004 38.4886 23.1538C38.3291 22.789 37.8869 22.6777 37.5949 22.9515C35.702 24.7211 34.4036 23.5954 33.7513 22.3333C33.5755 21.988 33.1373 21.9055 32.8594 22.1808C31.2744 23.7918 30.3803 23.0643 29.947 22.0102C29.6913 21.3512 29.8333 20.5575 30.1456 19.8956Z" fill="url(#paint4_linear_124_4868)"/>
<path d="M30.8622 37.6616C31.0151 37.4591 33.5183 39.2847 35.8603 39.5867C38.1832 39.8864 41.4433 38.9661 41.5796 39.2308C41.6956 39.4561 39.3676 41.304 35.6386 40.9704C32.7636 40.7132 30.6715 37.9139 30.8622 37.6616Z" fill="#FDE6DF"/>
<path d="M35.8802 39.588C38.1296 39.8778 41.2231 39.1153 41.5861 39.2929C41.6288 39.2408 41.646 39.1997 41.6332 39.175C41.4955 38.9102 38.2389 39.7452 35.8957 39.4434C33.5331 39.1391 30.9757 37.3934 30.8216 37.5958C30.8032 37.6199 30.8071 37.665 30.831 37.7266C31.1388 37.6525 33.5987 39.2942 35.8802 39.588Z" fill="#891812"/>
<defs>
<radialGradient id="paint0_radial_124_4868" cx="0" cy="0" r="1" gradientUnits="userSpaceOnUse" gradientTransform="translate(39.91 28.2256) rotate(6.12486) scale(41.7522 41.7522)">
<stop stop-color="#E52B22"/>
<stop offset="1" stop-color="#C81527"/>
</radialGradient>
<linearGradient id="paint1_linear_124_4868" x1="42.3082" y1="31.4398" x2="41.7105" y2="38.7789" gradientUnits="userSpaceOnUse">
<stop stop-color="#1D0909"/>
<stop offset="1" stop-color="#792828" stop-opacity="0.8"/>
</linearGradient>
<linearGradient id="paint2_linear_124_4868" x1="32.9244" y1="30.1782" x2="32.3294" y2="37.4831" gradientUnits="userSpaceOnUse">
<stop stop-color="#1D0909"/>
<stop offset="1" stop-color="#792828" stop-opacity="0.8"/>
</linearGradient>
<linearGradient id="paint3_linear_124_4868" x1="43.992" y1="5.09368" x2="39.6591" y2="24.1454" gradientUnits="userSpaceOnUse">
<stop stop-color="#7FBA32"/>
<stop offset="1" stop-color="#107D35"/>
</linearGradient>
<linearGradient id="paint4_linear_124_4868" x1="43.2751" y1="4.68627" x2="39.4826" y2="23.6354" gradientUnits="userSpaceOnUse">
<stop stop-color="#8FBF2A"/>
<stop offset="1" stop-color="#1CA638"/>
</linearGradient>
</defs>
</svg>
